<svg id="Layer_1" data-name="Layer 1" xmlns="http://www.w3.org/2000/svg" xmlns:xlink="http://www.w3.org/1999/xlink" viewBox="0 0 1080 1080">
<defs>
<style>.cls-2{fill:url(#linear-gradient);}</style>
<linearGradient id="linear-gradient" x1="345.86" y1="540" x2="734.14" y2="540" gradientUnits="userSpaceOnUse">
<stop offset="0" stop-color="#e20049"/><stop offset="1" stop-color="#bc2649"/>
</linearGradient>
</defs>
<rect class="cls-1" width="1080" height="1080"/>
<path class="cls-2" d="M734.14,587.53c0,109.28-90.9,197.33-201.23,192.59-99.34-4.26-180-85-184.12-184.34A192.39,192.39,0,0,1,360,522.22a19.31,19.31,0,0,1,18.15-12.77h52.74A30.1,30.1,0,0,1,461,539.55V664.81a10.6,10.6,0,0,0,10.59,10.59H616.74a10.6,10.6,0,0,0,10.59-10.59V519.63A10.6,10.6,0,0,0,616.74,509H491.36A30.09,30.09,0,0,1,461.27,479V431.18a18.86,18.86,0,0,0-18.87-18.86H353.16a7.3,7.3,0,0,1-7.3-7.31V307a7.3,7.3,0,0,1,7.3-7.31H454.08a7.3,7.3,0,0,1,7.3,7.31v77.9a18.84,18.84,0,0,0,24.3,18,193,193,0,0,1,55.71-8.16C647.86,394.78,734.14,481.09,734.14,587.53Z"/></svg>