<svg id="Layer_1" data-name="Layer 1" xmlns="http://www.w3.org/2000/svg" viewBox="0 0 1080 1080"><defs><style>.cls-1{fill:#fff;}</style></defs><rect class="cls-1" width="1080" height="1080"/><path d="M730.6,586.66c0,107.28-89.25,193.73-197.56,189.08-97.52-4.18-176.68-83.45-180.76-181a188.73,188.73,0,0,1,11-72.23A19,19,0,0,1,381.09,510h51.78a29.55,29.55,0,0,1,29.55,29.54v123a10.4,10.4,0,0,0,10.39,10.4H615.33a10.4,10.4,0,0,0,10.4-10.4V520a10.39,10.39,0,0,0-10.4-10.4H492.25a29.55,29.55,0,0,1-29.55-29.54v-46.9a18.52,18.52,0,0,0-18.52-18.52H356.57a7.17,7.17,0,0,1-7.17-7.17V311.25a7.17,7.17,0,0,1,7.17-7.17h99.08a7.17,7.17,0,0,1,7.17,7.17v76.48a18.5,18.5,0,0,0,23.86,17.71,189.53,189.53,0,0,1,54.69-8C645.89,397.43,730.6,482.17,730.6,586.66Z"/></svg>