<svg id="Layer_1" data-name="Layer 1" xmlns="http://www.w3.org/2000/svg" viewBox="0 0 1080 1080"><defs><style>.cls-1{fill:transparent;}</style></defs><rect class="cls-1" width="1080" height="1080"/><path d="M415,574.6a34.43,34.43,0,0,0,13.37-12.22c3.51-5.49,5.28-12.11,5.28-19.65,0-11.68-4.56-20.94-13.56-27.54s-21.82-9.9-38.22-9.9H317.14V649.42h68.79c17.89,0,31.71-3.4,41.08-10.11s14.18-16.48,14.18-29c0-9.33-2.43-17.15-7.24-23.27A37,37,0,0,0,415,574.6Zm-3.82,51.83c-5.78,3.77-14.54,5.68-26,5.68H338.34v-47h46.77c23,0,34.68,7.95,34.68,23.62C419.79,616.73,416.88,622.7,411.14,626.43Zm1.28-81.25c0,7.36-2.81,13-8.35,16.82s-13.69,5.78-24.08,5.78H338.34V522.59H380c10.39,0,18.49,1.94,24.08,5.78S412.42,537.83,412.42,545.18Z"/><path d="M545.4,546.21a59.62,59.62,0,0,0-29.16-7.12A60.28,60.28,0,0,0,487,546.2,51.82,51.82,0,0,0,466.66,566a60.16,60.16,0,0,0,0,57.52A52.57,52.57,0,0,0,487,643.43a59.44,59.44,0,0,0,29.27,7.21,58.83,58.83,0,0,0,29.16-7.21,52.78,52.78,0,0,0,20.21-19.9,60.09,60.09,0,0,0,0-57.52A52,52,0,0,0,545.4,546.21ZM534.81,628a38.53,38.53,0,0,1-37.14,0,34.34,34.34,0,0,1-13-13.39,43.5,43.5,0,0,1,0-39.61,33.82,33.82,0,0,1,13-13.28,39.28,39.28,0,0,1,37.15,0A33.09,33.09,0,0,1,547.69,575a44.44,44.44,0,0,1,0,39.62A33.86,33.86,0,0,1,534.81,628Z"/><rect x="599.48" y="496.68" width="20.38" height="152.73"/><path d="M715.6,591.87A168.07,168.07,0,0,0,694.35,587c-6.52-1.22-11.65-2.32-15.24-3.27a22.88,22.88,0,0,1-9-4.44,10,10,0,0,1-3.56-8.13c0-4.35,2.15-7.9,6.39-10.55s10.64-4,18.87-4c11.89,0,22.37,2.88,31.15,8.55l.32.21,8.74-16.2-.28-.18a59,59,0,0,0-17.93-7.21,91.41,91.41,0,0,0-21.8-2.68c-13.8,0-25,3-33.19,9s-12.44,14-12.44,24c0,7.71,2,13.78,6,18.06a33.49,33.49,0,0,0,14.39,9.11,146,146,0,0,0,21.46,4.73c6.53,1.11,11.38,2.08,14.83,3a21.9,21.9,0,0,1,8.57,4.13,9.27,9.27,0,0,1,3.35,7.52c0,9.55-8.56,14.39-25.46,14.39A71.58,71.58,0,0,1,669,629.87a58.36,58.36,0,0,1-17.31-8.14l-.33-.23-8.52,16.18.23.18c4.66,3.71,11.18,6.8,19.38,9.18a91.73,91.73,0,0,0,25.71,3.6c14.49,0,26.1-2.95,34.52-8.77s12.75-13.83,12.75-23.74c0-7.44-2-13.31-5.83-17.46A32.2,32.2,0,0,0,715.6,591.87Z"/><path d="M814.33,628.3a23.49,23.49,0,0,1-15.15,5c-5.34,0-9.49-1.55-12.34-4.6s-4.31-7.52-4.31-13.28V557h31.15V540.12H782.53V516.35H762.16v23.77H743.72V557h18.44v59.27c0,11,3.07,19.55,9.12,25.45s14.68,8.91,25.65,8.91a45.16,45.16,0,0,0,13.22-2,29.79,29.79,0,0,0,10.78-5.7l.2-.17L814.69,628Z"/><path d="M913.18,546.21a55,55,0,0,0-27.94-7.12,56.11,56.11,0,0,0-28.15,7.12,51.16,51.16,0,0,0-19.59,19.91,58.17,58.17,0,0,0-7.12,28.65,57.35,57.35,0,0,0,7.32,28.86,50.94,50.94,0,0,0,20.74,19.9c8.88,4.72,19.21,7.11,30.69,7.11a64.43,64.43,0,0,0,24.62-4.53,48.17,48.17,0,0,0,18.47-13.21l.2-.23L921.1,619.43l-.27.3c-7.82,8.62-18.27,13-31.09,13-10.52,0-19.44-2.91-26.51-8.63a33.83,33.83,0,0,1-12.42-22.42h88l0-.32a55.57,55.57,0,0,0,.41-6c0-10.93-2.32-20.77-6.91-29.26A50.22,50.22,0,0,0,913.18,546.21Zm-51.37,18.7c6.25-5.65,14.14-8.51,23.43-8.51s17.17,2.89,23.42,8.61a34.67,34.67,0,0,1,11,21.82H850.8C851.94,577.85,855.64,570.48,861.81,564.91Z"/><path d="M1024.56,539.09c-9.57,0-17.82,1.67-24.54,5a34.13,34.13,0,0,0-14.65,13.32V540.12H965.81v109.3h20.38V595c0-11.6,3-20.65,9-26.9s14.34-9.42,24.84-9.42a39.74,39.74,0,0,1,4.47.2l.39,0V539.09Z"/><path d="M274.36,566.84A108.86,108.86,0,0,1,160.72,675.61c-56.1-2.41-101.63-48-104-104.11A108.61,108.61,0,0,1,63.07,530a10.9,10.9,0,0,1,10.25-7.21H103.1a17,17,0,0,1,17,17v70.74a6,6,0,0,0,6,6h82a6,6,0,0,0,6-6v-82a6,6,0,0,0-6-6h-70.8a17,17,0,0,1-17-17v-27a10.65,10.65,0,0,0-10.65-10.66H59.21a4.11,4.11,0,0,1-4.12-4.12V408.42a4.12,4.12,0,0,1,4.12-4.13h57a4.13,4.13,0,0,1,4.13,4.13v44a10.64,10.64,0,0,0,13.72,10.19A109,109,0,0,1,274.36,566.84Z"/></svg>